<svg xmlns="http://www.w3.org/2000/svg" width="512" height="512" viewBox="0 0 512 512">
  <rect width="512" height="512" rx="80" fill="#1E40AF"/>
  <g transform="translate(100, 90)" fill="none" stroke="white" stroke-width="14" stroke-linecap="round" stroke-linejoin="round">
    <rect x="20" y="20" width="260" height="280" rx="30" fill="none"/>
    <line x1="20" y1="95" x2="280" y2="95"/>
    <line x1="95" y1="20" x2="95" y2="0"/>
    <line x1="205" y1="20" x2="205" y2="0"/>
    <circle cx="95" cy="150" r="10" fill="white"/>
    <circle cx="150" cy="150" r="10" fill="white"/>
    <circle cx="205" cy="150" r="10" fill="white"/>
    <circle cx="95" cy="205" r="10" fill="white"/>
    <circle cx="150" cy="205" r="10" fill="white"/>
    <circle cx="205" cy="205" r="10" fill="white"/>
    <circle cx="95" cy="260" r="10" fill="white"/>
  </g>
  <g transform="translate(275, 250)">
    <circle cx="65" cy="65" r="72" fill="#1E40AF" stroke="#1E40AF" stroke-width="10"/>
    <path d="M32 98 L65 22 L98 98 M42 76 h46" fill="none" stroke="#FBBF24" stroke-width="14" stroke-linecap="round" stroke-linejoin="round"/>
    <line x1="65" y1="98" x2="65" y2="118" stroke="#FBBF24" stroke-width="14" stroke-linecap="round"/>
  </g>
</svg>
