<svg xmlns="http://www.w3.org/2000/svg" width="192" height="192" viewBox="0 0 192 192">
  <rect width="192" height="192" rx="32" fill="#1E40AF"/>
  <g transform="translate(40, 36)" fill="none" stroke="white" stroke-width="5" stroke-linecap="round" stroke-linejoin="round">
    <rect x="8" y="8" width="96" height="104" rx="12" fill="none"/>
    <line x1="8" y1="36" x2="104" y2="36"/>
    <line x1="36" y1="8" x2="36" y2="0"/>
    <line x1="76" y1="8" x2="76" y2="0"/>
    <circle cx="36" cy="56" r="4" fill="white"/>
    <circle cx="56" cy="56" r="4" fill="white"/>
    <circle cx="76" cy="56" r="4" fill="white"/>
    <circle cx="36" cy="76" r="4" fill="white"/>
    <circle cx="56" cy="76" r="4" fill="white"/>
    <circle cx="76" cy="76" r="4" fill="white"/>
    <circle cx="36" cy="96" r="4" fill="white"/>
  </g>
  <g transform="translate(105, 95)">
    <circle cx="24" cy="24" r="28" fill="#1E40AF" stroke="#1E40AF" stroke-width="4"/>
    <path d="M12 36 L24 8 L36 36 M16 28 h16" fill="none" stroke="#FBBF24" stroke-width="5" stroke-linecap="round" stroke-linejoin="round"/>
    <line x1="24" y1="36" x2="24" y2="44" stroke="#FBBF24" stroke-width="5" stroke-linecap="round"/>
  </g>
</svg>
